<svg width="375" height="89" viewBox="0 0 375 89" fill="none" xmlns="http://www.w3.org/2000/svg">
<mask id="mask0_932_47718" style="mask-type:alpha" maskUnits="userSpaceOnUse" x="0" y="0" width="375" height="89">
<rect y="0.357178" width="375" height="88.5417" fill="#D69898"/>
</mask>
<g mask="url(#mask0_932_47718)">
<path d="M379.381 -242.925H-0.775391V354.106H379.381V-242.925Z" fill="url(#paint0_linear_932_47718)"/>
<g opacity="0.73">
<path opacity="0.73" d="M350.761 88.299C357.35 76.6324 356.1 61.0334 347.74 50.5647C343.339 45.0699 337.35 41.0855 332.897 35.6428C327.272 28.7417 324.459 19.9657 322.688 11.2417C317.48 -14.5135 319.954 -42.4822 307.584 -65.6593C298.313 -83.0031 281.803 -95.451 271.464 -112.17C251.959 -143.706 256.1 -187.378 231.1 -214.8C222.011 -224.748 209.876 -231.519 200.813 -241.519C191.022 -252.326 183.574 -267.691 169.251 -270.399C162.402 -271.701 155.449 -269.67 148.6 -268.446C112.35 -261.961 73.9642 -277.951 38.7819 -267.118C50.5528 -248.628 74.7715 -242.769 90.9955 -228.003C102.428 -217.612 109.407 -203.211 119.719 -191.701C130.396 -179.774 144.459 -171.102 154.303 -158.472C175.501 -131.362 174.485 -89.826 200.475 -67.2739C212.61 -56.727 229.485 -51.6489 239.042 -38.7062C249.537 -24.4874 248.287 -4.69576 256.152 11.1376C260.787 20.4865 268.365 27.9865 275.787 35.3043C290.032 49.3407 304.277 63.3772 318.522 77.3876C322.115 80.9292 325.917 84.8615 326.595 89.8615C327.766 98.4813 318.938 105.487 310.371 106.997C301.803 108.507 292.949 106.58 284.303 107.57C269.094 109.315 256.464 119.653 242.298 125.434C239.641 126.528 236.621 127.44 233.938 126.424C231.647 125.565 230.11 123.455 228.73 121.424C221.725 111.138 215.813 100.096 211.152 88.5334C194.72 47.9344 192.844 0.14798 164.485 -33.2114C155.292 -44.0187 143.417 -53.1333 137.896 -66.2062C134.407 -74.4614 133.704 -83.8885 128.938 -91.4926C123.287 -100.529 112.975 -105.373 103.313 -109.826C90.6829 -115.659 77.5058 -122.222 69.7975 -133.81C65.6308 -140.034 63.3392 -147.378 58.9642 -153.472C46.2299 -171.232 19.1466 -174.54 7.58407 -193.107C2.68824 -200.972 1.33392 -210.529 -2.46817 -218.993C-6.27025 -227.456 -14.2649 -235.477 -23.4577 -234.149C-20.7233 -197.144 -23.067 -159.748 -30.4889 -123.394C-33.3274 -109.461 -36.9211 -95.2426 -34.6815 -81.1801C-34.4471 -79.6697 -34.0826 -78.0551 -32.9888 -76.9614C-31.6086 -75.6072 -29.4993 -75.3989 -27.5722 -75.4249C-18.8222 -75.5291 -9.78567 -78.1854 -1.47838 -75.3989C9.71954 -71.6489 15.683 -59.3832 25.683 -53.1072C36.8028 -46.128 51.9069 -47.1437 62.0892 -38.8624C68.7559 -33.4458 72.1933 -24.852 78.7038 -19.253C86.1777 -12.8207 96.5944 -11.1801 105.266 -6.51869C118.626 0.668812 126.933 14.3667 135.032 27.1792C152.245 54.4709 171.334 80.6168 192.063 105.356C194.459 108.221 201.022 109.237 200.032 105.617L350.761 88.299Z" fill="url(#paint1_linear_932_47718)"/>
</g>
<path d="M-16.3739 57.2575C-17.7281 34.3148 4.22497 14.8617 27.0635 12.4137C49.902 9.96582 72.2719 20.6429 90.6573 34.445C99.4333 41.0335 108.418 48.7158 119.355 49.6273C141.465 51.5023 156.595 25.7471 178.392 21.5544C193.183 18.7158 209.355 27.7523 214.694 41.8408C217.61 49.5492 217.454 58.0127 219.225 66.0596C220.996 74.1064 225.605 82.4918 233.548 84.6273C252.246 89.6273 265.423 57.3877 284.225 61.971C297.324 65.1741 302.714 84.9918 316.204 84.8877C324.043 84.8356 329.954 77.4919 332.506 70.096C335.058 62.7002 335.527 54.6012 338.86 47.5179C345.892 32.57 368.808 26.6325 379.928 38.846C383.209 42.4398 385.162 47.0231 386.959 51.5283C404.329 95.3304 411.543 143.091 407.871 190.07C407.298 197.466 406.386 205.044 402.793 211.528C399.511 217.466 394.225 221.997 388.704 225.929C361.308 245.487 327.037 252.466 293.678 257.023C198.6 270.018 102.22 267.336 6.33445 270.773C-13.6656 271.502 -37.1553 270.851 -48.7699 254.549C-58.1449 241.372 -55.4625 223.429 -52.051 207.622C-47.5979 186.841 -42.5458 166.138 -35.3322 146.164C-29.4989 129.992 -22.2072 114.263 -18.0145 97.596C-13.8218 80.9033 -12.9365 62.7523 -19.7334 46.945L-16.3739 57.2575Z" fill="url(#paint2_linear_932_47718)"/>
<path d="M104.355 74.523C109.225 67.5699 118.157 63.7157 126.542 64.9397C134.928 66.1897 142.35 72.4397 145.058 80.5126C146.803 85.747 146.646 91.398 147.844 96.7886C149.042 102.153 152.271 107.752 157.61 108.976C164.85 110.669 171.516 103.664 178.964 103.69C184.12 103.69 188.808 107.205 191.516 111.632C194.225 116.059 195.318 121.268 196.1 126.424C197.506 135.539 198.027 145.434 193.522 153.455C189.016 161.476 180.37 166.138 171.933 169.679C166.256 172.075 160.318 174.184 154.172 174.158C145.136 174.106 136.36 169.393 127.402 170.539C119.146 171.58 112.376 177.335 104.772 180.747C91.1518 186.841 74.2767 184.783 62.4799 175.591C58.2611 172.283 54.0684 167.934 48.7299 168.039C44.5893 168.117 41.0477 170.903 37.4539 172.96C33.8602 175.018 28.9641 176.268 25.787 173.559C24.4329 172.414 23.6518 170.695 23.2091 168.976C20.6049 159.158 23.7558 143.638 29.8756 135.565C44.485 116.242 62.662 102.83 79.8235 85.747C85.2402 80.3303 91.9852 74.7835 99.5633 75.7991L104.355 74.523Z" fill="url(#paint3_linear_932_47718)"/>
</g>
<g filter="url(#filter0_dd_932_47718)">
<path d="M26.7656 34.3572H18.4766V32.3259L21.2656 29.5056C21.8438 28.9014 22.2917 28.4171 22.6094 28.0525C22.9323 27.6879 23.1589 27.378 23.2891 27.1228C23.4193 26.8676 23.4844 26.602 23.4844 26.3259C23.4844 25.9874 23.375 25.7426 23.1562 25.5916C22.9375 25.4405 22.6797 25.365 22.3828 25.365C22.0234 25.365 21.6589 25.4692 21.2891 25.6775C20.9245 25.8806 20.5104 26.1827 20.0469 26.5837L18.3516 24.5994C18.6953 24.2921 19.0599 24.0004 19.4453 23.7244C19.8307 23.4431 20.2865 23.2139 20.8125 23.0369C21.3385 22.8598 21.9792 22.7712 22.7344 22.7712C23.5104 22.7712 24.1823 22.9067 24.75 23.1775C25.3229 23.4483 25.7656 23.8207 26.0781 24.2947C26.3906 24.7634 26.5469 25.2973 26.5469 25.8962C26.5469 26.5577 26.4245 27.1488 26.1797 27.6697C25.9401 28.1853 25.5781 28.7035 25.0938 29.2244C24.6094 29.74 24.0052 30.3259 23.2812 30.9822L22.4453 31.7322V31.8103H26.7656V34.3572ZM36.6675 28.6619C36.6675 29.5785 36.5946 30.3988 36.4487 31.1228C36.3029 31.8416 36.0685 32.4535 35.7456 32.9587C35.4279 33.4639 35.006 33.8494 34.48 34.115C33.954 34.3806 33.3081 34.5134 32.5425 34.5134C31.5894 34.5134 30.8081 34.2817 30.1987 33.8181C29.5894 33.3494 29.1389 32.6801 28.8472 31.8103C28.5607 30.9353 28.4175 29.8858 28.4175 28.6619C28.4175 27.4275 28.5477 26.3728 28.8081 25.4978C29.0737 24.6176 29.5086 23.9431 30.1128 23.4744C30.717 23.0056 31.5269 22.7712 32.5425 22.7712C33.4956 22.7712 34.2743 23.0056 34.8784 23.4744C35.4878 23.9379 35.9383 24.6098 36.23 25.49C36.5217 26.365 36.6675 27.4223 36.6675 28.6619ZM31.4878 28.6619C31.4878 29.4067 31.5139 30.0317 31.5659 30.5369C31.6232 31.0421 31.7274 31.4223 31.8784 31.6775C32.0347 31.9275 32.256 32.0525 32.5425 32.0525C32.829 32.0525 33.0477 31.9275 33.1987 31.6775C33.3498 31.4223 33.454 31.0447 33.5112 30.5447C33.5685 30.0395 33.5972 29.4119 33.5972 28.6619C33.5972 27.9067 33.5685 27.2764 33.5112 26.7712C33.454 26.266 33.3498 25.8858 33.1987 25.6306C33.0477 25.3702 32.829 25.24 32.5425 25.24C32.256 25.24 32.0347 25.3702 31.8784 25.6306C31.7274 25.8858 31.6232 26.266 31.5659 26.7712C31.5139 27.2764 31.4878 27.9067 31.4878 28.6619ZM46.4756 34.3572H38.1866V32.3259L40.9756 29.5056C41.5537 28.9014 42.0017 28.4171 42.3194 28.0525C42.6423 27.6879 42.8689 27.378 42.9991 27.1228C43.1293 26.8676 43.1944 26.602 43.1944 26.3259C43.1944 25.9874 43.085 25.7426 42.8662 25.5916C42.6475 25.4405 42.3897 25.365 42.0928 25.365C41.7334 25.365 41.3689 25.4692 40.9991 25.6775C40.6345 25.8806 40.2204 26.1827 39.7569 26.5837L38.0616 24.5994C38.4053 24.2921 38.7699 24.0004 39.1553 23.7244C39.5407 23.4431 39.9965 23.2139 40.5225 23.0369C41.0485 22.8598 41.6892 22.7712 42.4444 22.7712C43.2204 22.7712 43.8923 22.9067 44.46 23.1775C45.0329 23.4483 45.4756 23.8207 45.7881 24.2947C46.1006 24.7634 46.2569 25.2973 46.2569 25.8962C46.2569 26.5577 46.1345 27.1488 45.8897 27.6697C45.6501 28.1853 45.2881 28.7035 44.8037 29.2244C44.3194 29.74 43.7152 30.3259 42.9912 30.9822L42.1553 31.7322V31.8103H46.4756V34.3572ZM56.3306 34.3572H48.0416V32.3259L50.8306 29.5056C51.4088 28.9014 51.8567 28.4171 52.1744 28.0525C52.4973 27.6879 52.7239 27.378 52.8541 27.1228C52.9843 26.8676 53.0494 26.602 53.0494 26.3259C53.0494 25.9874 52.94 25.7426 52.7213 25.5916C52.5025 25.4405 52.2447 25.365 51.9478 25.365C51.5884 25.365 51.2239 25.4692 50.8541 25.6775C50.4895 25.8806 50.0754 26.1827 49.6119 26.5837L47.9166 24.5994C48.2603 24.2921 48.6249 24.0004 49.0103 23.7244C49.3957 23.4431 49.8515 23.2139 50.3775 23.0369C50.9035 22.8598 51.5442 22.7712 52.2994 22.7712C53.0754 22.7712 53.7473 22.9067 54.315 23.1775C54.8879 23.4483 55.3306 23.8207 55.6431 24.2947C55.9556 24.7634 56.1119 25.2973 56.1119 25.8962C56.1119 26.5577 55.9895 27.1488 55.7447 27.6697C55.5051 28.1853 55.1431 28.7035 54.6588 29.2244C54.1744 29.74 53.5702 30.3259 52.8463 30.9822L52.0103 31.7322V31.8103H56.3306V34.3572Z" fill="white"/>
</g>
<g filter="url(#filter1_dd_932_47718)">
<path d="M32.4238 64.3572L31.4395 60.6111H24.9453L23.9336 64.3572H18L24.5215 44.2869H31.7266L38.3301 64.3572H32.4238ZM30.3184 56.1814L29.457 52.9001C29.3659 52.5447 29.2337 52.0388 29.0605 51.3826C28.8874 50.7172 28.7142 50.0336 28.541 49.3318C28.377 48.6208 28.2493 48.0375 28.1582 47.5818C28.0762 48.0375 27.9577 48.6026 27.8027 49.2771C27.6569 49.9425 27.502 50.6033 27.3379 51.2595C27.1829 51.9158 27.0462 52.4626 26.9277 52.9001L26.0664 56.1814H30.3184ZM51.0504 48.5935C52.7639 48.5935 54.1083 49.2817 55.0836 50.658C56.0589 52.0251 56.5465 53.9985 56.5465 56.5779C56.5465 58.337 56.3004 59.8181 55.8082 61.0212C55.316 62.2153 54.6415 63.1176 53.7848 63.7283C52.9371 64.3298 51.971 64.6306 50.8863 64.6306C50.1572 64.6306 49.5374 64.5395 49.027 64.3572C48.5257 64.1749 48.1064 63.947 47.7691 63.6736C47.441 63.4001 47.163 63.1222 46.9352 62.8396H46.7711C46.8167 63.1951 46.8531 63.5779 46.8805 63.988C46.9169 64.3982 46.9352 64.8767 46.9352 65.4236V71.0837H41.5895V48.8669H45.9371L46.6891 50.8357H46.9352C47.1904 50.4347 47.5003 50.0655 47.8648 49.7283C48.2294 49.3819 48.6715 49.1085 49.191 48.908C49.7197 48.6983 50.3395 48.5935 51.0504 48.5935ZM49.0406 52.7908C48.5211 52.7908 48.1109 52.9138 47.8102 53.1599C47.5094 53.406 47.2906 53.7797 47.1539 54.281C47.0263 54.7732 46.9534 55.3884 46.9352 56.1267V56.5505C46.9352 57.3708 46.999 58.0636 47.1266 58.6287C47.2542 59.1847 47.4729 59.6085 47.7828 59.9001C48.0927 60.1827 48.5211 60.324 49.068 60.324C49.5146 60.324 49.8883 60.1964 50.1891 59.9412C50.4898 59.686 50.7177 59.2804 50.8727 58.7244C51.0276 58.1684 51.1051 57.4347 51.1051 56.5232C51.1051 55.1651 50.9273 54.2035 50.5719 53.6384C50.2255 53.0733 49.7151 52.7908 49.0406 52.7908ZM70.3605 48.5935C70.6522 48.5935 70.9576 48.6163 71.2766 48.6619C71.5956 48.6983 71.8326 48.7302 71.9875 48.7576L71.509 53.8025C71.3358 53.7569 71.1125 53.7205 70.8391 53.6931C70.5656 53.6567 70.1828 53.6384 69.6906 53.6384C69.3534 53.6384 68.9934 53.6703 68.6105 53.7341C68.2277 53.7979 67.8632 53.9347 67.5168 54.1443C67.1796 54.3448 66.9016 54.6547 66.6828 55.074C66.4641 55.4841 66.3547 56.0401 66.3547 56.7419V64.3572H61.009V48.8669H64.9875L65.8215 51.3416H66.0812C66.3638 50.8311 66.7238 50.3708 67.1613 49.9607C67.6079 49.5414 68.1047 49.2087 68.6516 48.9626C69.2076 48.7166 69.7772 48.5935 70.3605 48.5935ZM80.9344 48.8669V64.3572H75.5887V48.8669H80.9344ZM78.282 42.6326C79.0477 42.6326 79.713 42.7921 80.2781 43.1111C80.8523 43.4301 81.1395 44.0636 81.1395 45.0115C81.1395 45.932 80.8523 46.5564 80.2781 46.8845C79.713 47.2035 79.0477 47.363 78.282 47.363C77.4982 47.363 76.8283 47.2035 76.2723 46.8845C75.7254 46.5564 75.452 45.932 75.452 45.0115C75.452 44.0636 75.7254 43.4301 76.2723 43.1111C76.8283 42.7921 77.4982 42.6326 78.282 42.6326ZM91.4125 64.3572H86.0668V43.0837H91.4125V64.3572Z" fill="white"/>
</g>
<defs>
<filter id="filter0_dd_932_47718" x="7.35156" y="10.7712" width="59.9795" height="35.7422" filterUnits="userSpaceOnUse" color-interpolation-filters="sRGB">
<feFlood flood-opacity="0" result="BackgroundImageFix"/>
<feColorMatrix in="SourceAlpha" type="matrix" values="0 0 0 0 0 0 0 0 0 0 0 0 0 0 0 0 0 0 127 0" result="hardAlpha"/>
<feOffset dx="-1" dy="-2"/>
<feGaussianBlur stdDeviation="5"/>
<feComposite in2="hardAlpha" operator="out"/>
<feColorMatrix type="matrix" values="0 0 0 0 0 0 0 0 0 0 0 0 0 0 0 0 0 0 0.25 0"/>
<feBlend mode="normal" in2="BackgroundImageFix" result="effect1_dropShadow_932_47718"/>
<feColorMatrix in="SourceAlpha" type="matrix" values="0 0 0 0 0 0 0 0 0 0 0 0 0 0 0 0 0 0 127 0" result="hardAlpha"/>
<feOffset dx="1" dy="2"/>
<feGaussianBlur stdDeviation="5"/>
<feComposite in2="hardAlpha" operator="out"/>
<feColorMatrix type="matrix" values="0 0 0 0 0 0 0 0 0 0 0 0 0 0 0 0 0 0 0.25 0"/>
<feBlend mode="normal" in2="effect1_dropShadow_932_47718" result="effect2_dropShadow_932_47718"/>
<feBlend mode="normal" in="SourceGraphic" in2="effect2_dropShadow_932_47718" result="shape"/>
</filter>
<filter id="filter1_dd_932_47718" x="6" y="29.6326" width="97.4121" height="54.4512" filterUnits="userSpaceOnUse" color-interpolation-filters="sRGB">
<feFlood flood-opacity="0" result="BackgroundImageFix"/>
<feColorMatrix in="SourceAlpha" type="matrix" values="0 0 0 0 0 0 0 0 0 0 0 0 0 0 0 0 0 0 127 0" result="hardAlpha"/>
<feOffset dx="-2" dy="-3"/>
<feGaussianBlur stdDeviation="5"/>
<feComposite in2="hardAlpha" operator="out"/>
<feColorMatrix type="matrix" values="0 0 0 0 0 0 0 0 0 0 0 0 0 0 0 0 0 0 0.25 0"/>
<feBlend mode="normal" in2="BackgroundImageFix" result="effect1_dropShadow_932_47718"/>
<feColorMatrix in="SourceAlpha" type="matrix" values="0 0 0 0 0 0 0 0 0 0 0 0 0 0 0 0 0 0 127 0" result="hardAlpha"/>
<feOffset dx="2" dy="3"/>
<feGaussianBlur stdDeviation="5"/>
<feComposite in2="hardAlpha" operator="out"/>
<feColorMatrix type="matrix" values="0 0 0 0 0 0 0 0 0 0 0 0 0 0 0 0 0 0 0.25 0"/>
<feBlend mode="normal" in2="effect1_dropShadow_932_47718" result="effect2_dropShadow_932_47718"/>
<feBlend mode="normal" in="SourceGraphic" in2="effect2_dropShadow_932_47718" result="shape"/>
</filter>
<linearGradient id="paint0_linear_932_47718" x1="433.593" y1="299.892" x2="-55.0003" y2="-188.702" gradientUnits="userSpaceOnUse">
<stop stop-color="#FFF5E7"/>
<stop offset="0.1686" stop-color="#FAE9E4"/>
<stop offset="0.4698" stop-color="#EECBDB"/>
<stop offset="0.8659" stop-color="#DA99CE"/>
<stop offset="1" stop-color="#D387C9"/>
</linearGradient>
<linearGradient id="paint1_linear_932_47718" x1="342.031" y1="97.0318" x2="-6.28837" y2="-251.287" gradientUnits="userSpaceOnUse">
<stop stop-color="#FFF5E7"/>
<stop offset="0.1552" stop-color="#FCEDE5"/>
<stop offset="0.3926" stop-color="#F3D8DF"/>
<stop offset="0.6827" stop-color="#E5B5D6"/>
<stop offset="1" stop-color="#D387C9"/>
</linearGradient>
<linearGradient id="paint2_linear_932_47718" x1="-55.2386" y1="141.524" x2="408.764" y2="141.524" gradientUnits="userSpaceOnUse">
<stop stop-color="#EF7155"/>
<stop offset="0.5129" stop-color="#EF7357"/>
<stop offset="0.6976" stop-color="#EF7A5D"/>
<stop offset="0.8293" stop-color="#EF8567"/>
<stop offset="0.935" stop-color="#EF9676"/>
<stop offset="1" stop-color="#EFA583"/>
</linearGradient>
<linearGradient id="paint3_linear_932_47718" x1="22.2643" y1="124.479" x2="197.085" y2="124.479" gradientUnits="userSpaceOnUse">
<stop stop-color="#FD8100"/>
<stop offset="0.5299" stop-color="#FE9607"/>
<stop offset="1" stop-color="#FFAD0E"/>
</linearGradient>
</defs>
</svg>
